STARTFONT 2.1
COMMENT
COMMENT Converted from OpenType font "LondonIbus.ttf" by "otf2bdf 3.0".
COMMENT
FONT -FreeType-LondonIbus-Medium-R-Normal--7-70-75-75-P-15-ISO10646-1
SIZE 7 75 75
FONTBOUNDINGBOX 3 4 0 -1
STARTPROPERTIES 19
FOUNDRY "FreeType"
FAMILY_NAME "LondonIbus"
WEIGHT_NAME "Medium"
SLANT "R"
SETWIDTH_NAME "Normal"
ADD_STYLE_NAME ""
PIXEL_SIZE 7
POINT_SIZE 70
RESOLUTION_X 75
RESOLUTION_Y 75
SPACING "P"
AVERAGE_WIDTH 15
CHARSET_REGISTRY "ISO10646"
CHARSET_ENCODING "1"
FONT_ASCENT 4
FONT_DESCENT 0
COPYRIGHT "ImBenji"
_OTF_FONTFILE "LondonIbus.ttf"
_OTF_PSNAME "LondonIbus"
ENDPROPERTIES
CHARS 76
STARTCHAR 0020
ENCODING 32
SWIDTH 274 0
DWIDTH 2 0
BBX 0 0 0 0
BITMAP
ENDCHAR
STARTCHAR 0021
ENCODING 33
SWIDTH 137 0
DWIDTH 1 0
BBX 0 0 0 0
BITMAP
ENDCHAR
STARTCHAR 0026
ENCODING 38
SWIDTH 411 0
DWIDTH 3 0
BBX 3 3 0 0
BITMAP
C0
A0
40
ENDCHAR
STARTCHAR 0027
ENCODING 39
SWIDTH 137 0
DWIDTH 1 0
BBX 0 0 0 2
BITMAP
ENDCHAR
STARTCHAR 0028
ENCODING 40
SWIDTH 137 0
DWIDTH 1 0
BBX 0 0 0 0
BITMAP
ENDCHAR
STARTCHAR 0029
ENCODING 41
SWIDTH 137 0
DWIDTH 1 0
BBX 1 3 0 0
BITMAP
80
80
80
ENDCHAR
STARTCHAR 002A
ENCODING 42
SWIDTH 411 0
DWIDTH 3 0
BBX 2 1 0 1
BITMAP
C0
ENDCHAR
STARTCHAR 002C
ENCODING 44
SWIDTH 137 0
DWIDTH 1 0
BBX 0 0 0 -1
BITMAP
ENDCHAR
STARTCHAR 002D
ENCODING 45
SWIDTH 274 0
DWIDTH 2 0
BBX 0 0 0 1
BITMAP
ENDCHAR
STARTCHAR 002E
ENCODING 46
SWIDTH 137 0
DWIDTH 1 0
BBX 0 0 0 0
BITMAP
ENDCHAR
STARTCHAR 002F
ENCODING 47
SWIDTH 274 0
DWIDTH 2 0
BBX 2 3 0 0
BITMAP
40
00
80
ENDCHAR
STARTCHAR 0030
ENCODING 48
SWIDTH 274 0
DWIDTH 2 0
BBX 1 3 1 0
BITMAP
80
80
80
ENDCHAR
STARTCHAR 0031
ENCODING 49
SWIDTH 274 0
DWIDTH 2 0
BBX 1 3 0 0
BITMAP
80
80
80
ENDCHAR
STARTCHAR 0032
ENCODING 50
SWIDTH 274 0
DWIDTH 2 0
BBX 1 1 1 0
BITMAP
80
ENDCHAR
STARTCHAR 0033
ENCODING 51
SWIDTH 274 0
DWIDTH 2 0
BBX 2 3 0 0
BITMAP
40
80
40
ENDCHAR
STARTCHAR 0034
ENCODING 52
SWIDTH 411 0
DWIDTH 3 0
BBX 1 3 1 0
BITMAP
80
80
80
ENDCHAR
STARTCHAR 0035
ENCODING 53
SWIDTH 274 0
DWIDTH 2 0
BBX 1 2 1 1
BITMAP
80
80
ENDCHAR
STARTCHAR 0036
ENCODING 54
SWIDTH 274 0
DWIDTH 2 0
BBX 2 3 0 0
BITMAP
40
80
40
ENDCHAR
STARTCHAR 0037
ENCODING 55
SWIDTH 274 0
DWIDTH 2 0
BBX 2 3 0 0
BITMAP
40
00
80
ENDCHAR
STARTCHAR 0038
ENCODING 56
SWIDTH 274 0
DWIDTH 2 0
BBX 2 3 0 0
BITMAP
40
80
40
ENDCHAR
STARTCHAR 0039
ENCODING 57
SWIDTH 274 0
DWIDTH 2 0
BBX 2 3 0 0
BITMAP
40
C0
40
ENDCHAR
STARTCHAR 003A
ENCODING 58
SWIDTH 137 0
DWIDTH 1 0
BBX 0 0 0 0
BITMAP
ENDCHAR
STARTCHAR 003F
ENCODING 63
SWIDTH 274 0
DWIDTH 2 0
BBX 1 1 1 0
BITMAP
80
ENDCHAR
STARTCHAR 0041
ENCODING 65
SWIDTH 411 0
DWIDTH 3 0
BBX 2 1 0 0
BITMAP
C0
ENDCHAR
STARTCHAR 0042
ENCODING 66
SWIDTH 411 0
DWIDTH 3 0
BBX 2 1 0 1
BITMAP
C0
ENDCHAR
STARTCHAR 0043
ENCODING 67
SWIDTH 411 0
DWIDTH 3 0
BBX 1 3 0 0
BITMAP
80
00
80
ENDCHAR
STARTCHAR 0044
ENCODING 68
SWIDTH 411 0
DWIDTH 3 0
BBX 1 3 1 0
BITMAP
80
00
80
ENDCHAR
STARTCHAR 0045
ENCODING 69
SWIDTH 274 0
DWIDTH 2 0
BBX 1 1 0 1
BITMAP
80
ENDCHAR
STARTCHAR 0046
ENCODING 70
SWIDTH 411 0
DWIDTH 3 0
BBX 2 1 0 1
BITMAP
C0
ENDCHAR
STARTCHAR 0047
ENCODING 71
SWIDTH 411 0
DWIDTH 3 0
BBX 1 1 1 1
BITMAP
80
ENDCHAR
STARTCHAR 0048
ENCODING 72
SWIDTH 411 0
DWIDTH 3 0
BBX 2 1 0 1
BITMAP
C0
ENDCHAR
STARTCHAR 0049
ENCODING 73
SWIDTH 137 0
DWIDTH 1 0
BBX 0 0 0 0
BITMAP
ENDCHAR
STARTCHAR 004A
ENCODING 74
SWIDTH 274 0
DWIDTH 2 0
BBX 0 0 0 0
BITMAP
ENDCHAR
STARTCHAR 004B
ENCODING 75
SWIDTH 411 0
DWIDTH 3 0
BBX 2 3 0 0
BITMAP
40
80
40
ENDCHAR
STARTCHAR 004C
ENCODING 76
SWIDTH 274 0
DWIDTH 2 0
BBX 0 0 0 0
BITMAP
ENDCHAR
STARTCHAR 004D
ENCODING 77
SWIDTH 411 0
DWIDTH 3 0
BBX 2 1 0 0
BITMAP
C0
ENDCHAR
STARTCHAR 004E
ENCODING 78
SWIDTH 411 0
DWIDTH 3 0
BBX 2 3 0 0
BITMAP
80
00
40
ENDCHAR
STARTCHAR 004F
ENCODING 79
SWIDTH 411 0
DWIDTH 3 0
BBX 0 0 0 0
BITMAP
ENDCHAR
STARTCHAR 0050
ENCODING 80
SWIDTH 411 0
DWIDTH 3 0
BBX 2 1 0 1
BITMAP
C0
ENDCHAR
STARTCHAR 0051
ENCODING 81
SWIDTH 411 0
DWIDTH 3 0
BBX 1 1 1 2
BITMAP
80
ENDCHAR
STARTCHAR 0052
ENCODING 82
SWIDTH 411 0
DWIDTH 3 0
BBX 2 1 0 1
BITMAP
C0
ENDCHAR
STARTCHAR 0053
ENCODING 83
SWIDTH 274 0
DWIDTH 2 0
BBX 2 3 0 0
BITMAP
40
80
40
ENDCHAR
STARTCHAR 0054
ENCODING 84
SWIDTH 411 0
DWIDTH 3 0
BBX 0 0 0 0
BITMAP
ENDCHAR
STARTCHAR 0055
ENCODING 85
SWIDTH 411 0
DWIDTH 3 0
BBX 0 0 0 0
BITMAP
ENDCHAR
STARTCHAR 0056
ENCODING 86
SWIDTH 411 0
DWIDTH 3 0
BBX 2 1 0 2
BITMAP
C0
ENDCHAR
STARTCHAR 0057
ENCODING 87
SWIDTH 411 0
DWIDTH 3 0
BBX 2 1 0 2
BITMAP
C0
ENDCHAR
STARTCHAR 0058
ENCODING 88
SWIDTH 411 0
DWIDTH 3 0
BBX 0 0 0 0
BITMAP
ENDCHAR
STARTCHAR 0059
ENCODING 89
SWIDTH 411 0
DWIDTH 3 0
BBX 0 0 0 0
BITMAP
ENDCHAR
STARTCHAR 005A
ENCODING 90
SWIDTH 411 0
DWIDTH 3 0
BBX 0 0 0 0
BITMAP
ENDCHAR
STARTCHAR 0061
ENCODING 97
SWIDTH 274 0
DWIDTH 2 0
BBX 1 2 1 0
BITMAP
80
80
ENDCHAR
STARTCHAR 0062
ENCODING 98
SWIDTH 274 0
DWIDTH 2 0
BBX 1 2 1 1
BITMAP
80
80
ENDCHAR
STARTCHAR 0063
ENCODING 99
SWIDTH 274 0
DWIDTH 2 0
BBX 0 0 0 0
BITMAP
ENDCHAR
STARTCHAR 0064
ENCODING 100
SWIDTH 274 0
DWIDTH 2 0
BBX 1 3 1 0
BITMAP
80
80
80
ENDCHAR
STARTCHAR 0065
ENCODING 101
SWIDTH 274 0
DWIDTH 2 0
BBX 1 1 1 0
BITMAP
80
ENDCHAR
STARTCHAR 0066
ENCODING 102
SWIDTH 274 0
DWIDTH 2 0
BBX 1 3 0 0
BITMAP
80
80
80
ENDCHAR
STARTCHAR 0067
ENCODING 103
SWIDTH 274 0
DWIDTH 2 0
BBX 2 3 0 -1
BITMAP
40
40
80
ENDCHAR
STARTCHAR 0068
ENCODING 104
SWIDTH 274 0
DWIDTH 2 0
BBX 1 2 1 1
BITMAP
80
80
ENDCHAR
STARTCHAR 0069
ENCODING 105
SWIDTH 137 0
DWIDTH 1 0
BBX 0 0 0 0
BITMAP
ENDCHAR
STARTCHAR 006A
ENCODING 106
SWIDTH 274 0
DWIDTH 2 0
BBX 1 1 0 2
BITMAP
80
ENDCHAR
STARTCHAR 006B
ENCODING 107
SWIDTH 274 0
DWIDTH 2 0
BBX 0 0 0 0
BITMAP
ENDCHAR
STARTCHAR 006C
ENCODING 108
SWIDTH 137 0
DWIDTH 1 0
BBX 0 0 0 0
BITMAP
ENDCHAR
STARTCHAR 006D
ENCODING 109
SWIDTH 411 0
DWIDTH 3 0
BBX 0 0 0 0
BITMAP
ENDCHAR
STARTCHAR 006E
ENCODING 110
SWIDTH 274 0
DWIDTH 2 0
BBX 1 2 1 0
BITMAP
80
80
ENDCHAR
STARTCHAR 006F
ENCODING 111
SWIDTH 274 0
DWIDTH 2 0
BBX 1 2 1 0
BITMAP
80
80
ENDCHAR
STARTCHAR 0070
ENCODING 112
SWIDTH 274 0
DWIDTH 2 0
BBX 1 2 1 -1
BITMAP
80
80
ENDCHAR
STARTCHAR 0071
ENCODING 113
SWIDTH 274 0
DWIDTH 2 0
BBX 1 3 1 -1
BITMAP
80
80
80
ENDCHAR
STARTCHAR 0072
ENCODING 114
SWIDTH 274 0
DWIDTH 2 0
BBX 1 1 0 0
BITMAP
80
ENDCHAR
STARTCHAR 0073
ENCODING 115
SWIDTH 274 0
DWIDTH 2 0
BBX 1 1 1 1
BITMAP
80
ENDCHAR
STARTCHAR 0074
ENCODING 116
SWIDTH 274 0
DWIDTH 2 0
BBX 1 3 0 0
BITMAP
80
80
80
ENDCHAR
STARTCHAR 0075
ENCODING 117
SWIDTH 274 0
DWIDTH 2 0
BBX 1 2 1 0
BITMAP
80
80
ENDCHAR
STARTCHAR 0076
ENCODING 118
SWIDTH 411 0
DWIDTH 3 0
BBX 2 1 0 1
BITMAP
C0
ENDCHAR
STARTCHAR 0077
ENCODING 119
SWIDTH 411 0
DWIDTH 3 0
BBX 0 0 0 0
BITMAP
ENDCHAR
STARTCHAR 0078
ENCODING 120
SWIDTH 411 0
DWIDTH 3 0
BBX 2 2 0 0
BITMAP
C0
C0
ENDCHAR
STARTCHAR 0079
ENCODING 121
SWIDTH 274 0
DWIDTH 2 0
BBX 2 3 0 -1
BITMAP
40
40
80
ENDCHAR
STARTCHAR 007A
ENCODING 122
SWIDTH 274 0
DWIDTH 2 0
BBX 0 0 0 0
BITMAP
ENDCHAR
STARTCHAR 00A0
ENCODING 160
SWIDTH 274 0
DWIDTH 2 0
BBX 0 0 0 0
BITMAP
ENDCHAR
ENDFONT
